<mxfile host="app.diagrams.net" modified="2024-05-29T10:53:20.548Z" agent="Mozilla/5.0 (X11; CrOS x86_64 14541.0.0) AppleWebKit/537.36 (KHTML, like Gecko) Chrome/124.0.0.0 Safari/537.36" etag="4ulk7Z7VwF6846xGWhMa" version="24.4.9" type="github">
  <diagram name="Página-1" id="m7mqNxaVAp2z84SnnDSy">
    <mxGraphModel dx="880" dy="474" grid="1" gridSize="10" guides="1" tooltips="1" connect="1" arrows="1" fold="1" page="1" pageScale="1" pageWidth="827" pageHeight="1169" math="0" shadow="0">
      <root>
        <mxCell id="0" />
        <mxCell id="1" parent="0" />
        <mxCell id="qozd9NBj0RtvDI7-sQQz-15" value="" style="edgeStyle=orthogonalEdgeStyle;rounded=0;orthogonalLoop=1;jettySize=auto;html=1;" edge="1" parent="1" source="_V0p3MUHYfzyWsOnB0Cb-2" target="qozd9NBj0RtvDI7-sQQz-4">
          <mxGeometry relative="1" as="geometry" />
        </mxCell>
        <mxCell id="qozd9NBj0RtvDI7-sQQz-16" value="" style="edgeStyle=orthogonalEdgeStyle;rounded=0;orthogonalLoop=1;jettySize=auto;html=1;" edge="1" parent="1" source="_V0p3MUHYfzyWsOnB0Cb-2" target="qozd9NBj0RtvDI7-sQQz-4">
          <mxGeometry relative="1" as="geometry" />
        </mxCell>
        <mxCell id="_V0p3MUHYfzyWsOnB0Cb-2" value="Cadastro" style="rounded=0;whiteSpace=wrap;html=1;" parent="1" vertex="1">
          <mxGeometry x="210" y="40" width="120" height="60" as="geometry" />
        </mxCell>
        <mxCell id="_V0p3MUHYfzyWsOnB0Cb-5" value="" style="endArrow=classic;startArrow=classic;html=1;rounded=0;entryX=0.485;entryY=0.4;entryDx=0;entryDy=0;entryPerimeter=0;" parent="1" edge="1">
          <mxGeometry width="50" height="50" relative="1" as="geometry">
            <mxPoint x="410" y="70" as="sourcePoint" />
            <mxPoint x="329.99999999999994" y="69.5" as="targetPoint" />
          </mxGeometry>
        </mxCell>
        <mxCell id="qozd9NBj0RtvDI7-sQQz-18" value="" style="edgeStyle=orthogonalEdgeStyle;rounded=0;orthogonalLoop=1;jettySize=auto;html=1;" edge="1" parent="1" source="_V0p3MUHYfzyWsOnB0Cb-6" target="qozd9NBj0RtvDI7-sQQz-17">
          <mxGeometry relative="1" as="geometry" />
        </mxCell>
        <mxCell id="qozd9NBj0RtvDI7-sQQz-27" value="" style="edgeStyle=orthogonalEdgeStyle;rounded=0;orthogonalLoop=1;jettySize=auto;html=1;" edge="1" parent="1" source="_V0p3MUHYfzyWsOnB0Cb-6" target="qozd9NBj0RtvDI7-sQQz-19">
          <mxGeometry relative="1" as="geometry" />
        </mxCell>
        <mxCell id="_V0p3MUHYfzyWsOnB0Cb-6" value="Login" style="rounded=0;whiteSpace=wrap;html=1;" parent="1" vertex="1">
          <mxGeometry x="414" y="40" width="120" height="60" as="geometry" />
        </mxCell>
        <mxCell id="qozd9NBj0RtvDI7-sQQz-9" value="" style="edgeStyle=orthogonalEdgeStyle;rounded=0;orthogonalLoop=1;jettySize=auto;html=1;" edge="1" parent="1" source="qozd9NBj0RtvDI7-sQQz-1" target="qozd9NBj0RtvDI7-sQQz-5">
          <mxGeometry relative="1" as="geometry" />
        </mxCell>
        <mxCell id="qozd9NBj0RtvDI7-sQQz-1" value="&lt;b&gt;Nome completo&lt;/b&gt;" style="rounded=0;whiteSpace=wrap;html=1;" vertex="1" parent="1">
          <mxGeometry x="210" y="120" width="120" height="60" as="geometry" />
        </mxCell>
        <mxCell id="qozd9NBj0RtvDI7-sQQz-11" value="" style="edgeStyle=orthogonalEdgeStyle;rounded=0;orthogonalLoop=1;jettySize=auto;html=1;" edge="1" parent="1" source="qozd9NBj0RtvDI7-sQQz-4" target="qozd9NBj0RtvDI7-sQQz-6">
          <mxGeometry relative="1" as="geometry" />
        </mxCell>
        <mxCell id="qozd9NBj0RtvDI7-sQQz-4" value="email" style="rounded=0;whiteSpace=wrap;html=1;" vertex="1" parent="1">
          <mxGeometry x="210" y="200" width="120" height="60" as="geometry" />
        </mxCell>
        <mxCell id="qozd9NBj0RtvDI7-sQQz-12" value="" style="edgeStyle=orthogonalEdgeStyle;rounded=0;orthogonalLoop=1;jettySize=auto;html=1;" edge="1" parent="1" source="qozd9NBj0RtvDI7-sQQz-5" target="qozd9NBj0RtvDI7-sQQz-7">
          <mxGeometry relative="1" as="geometry" />
        </mxCell>
        <mxCell id="qozd9NBj0RtvDI7-sQQz-5" value="senha" style="rounded=0;whiteSpace=wrap;html=1;" vertex="1" parent="1">
          <mxGeometry x="210" y="280" width="120" height="60" as="geometry" />
        </mxCell>
        <mxCell id="qozd9NBj0RtvDI7-sQQz-6" value="data de nascimento" style="rounded=0;whiteSpace=wrap;html=1;" vertex="1" parent="1">
          <mxGeometry x="210" y="360" width="120" height="60" as="geometry" />
        </mxCell>
        <mxCell id="qozd9NBj0RtvDI7-sQQz-7" value="validação de dados&lt;div&gt;(verificar se o email é único)&lt;/div&gt;" style="rounded=0;whiteSpace=wrap;html=1;" vertex="1" parent="1">
          <mxGeometry x="180" y="440" width="120" height="60" as="geometry" />
        </mxCell>
        <mxCell id="qozd9NBj0RtvDI7-sQQz-25" value="" style="edgeStyle=orthogonalEdgeStyle;rounded=0;orthogonalLoop=1;jettySize=auto;html=1;" edge="1" parent="1" source="qozd9NBj0RtvDI7-sQQz-17" target="qozd9NBj0RtvDI7-sQQz-21">
          <mxGeometry relative="1" as="geometry" />
        </mxCell>
        <mxCell id="qozd9NBj0RtvDI7-sQQz-17" value="Email" style="rounded=0;whiteSpace=wrap;html=1;" vertex="1" parent="1">
          <mxGeometry x="414" y="120" width="120" height="60" as="geometry" />
        </mxCell>
        <mxCell id="qozd9NBj0RtvDI7-sQQz-22" value="" style="edgeStyle=orthogonalEdgeStyle;rounded=0;orthogonalLoop=1;jettySize=auto;html=1;" edge="1" parent="1" source="qozd9NBj0RtvDI7-sQQz-19" target="qozd9NBj0RtvDI7-sQQz-21">
          <mxGeometry relative="1" as="geometry" />
        </mxCell>
        <mxCell id="qozd9NBj0RtvDI7-sQQz-19" value="senha" style="rounded=0;whiteSpace=wrap;html=1;" vertex="1" parent="1">
          <mxGeometry x="414" y="200" width="120" height="60" as="geometry" />
        </mxCell>
        <mxCell id="qozd9NBj0RtvDI7-sQQz-24" value="" style="edgeStyle=orthogonalEdgeStyle;rounded=0;orthogonalLoop=1;jettySize=auto;html=1;" edge="1" parent="1" source="qozd9NBj0RtvDI7-sQQz-21" target="qozd9NBj0RtvDI7-sQQz-23">
          <mxGeometry relative="1" as="geometry" />
        </mxCell>
        <mxCell id="qozd9NBj0RtvDI7-sQQz-21" value="validação de dados" style="rounded=0;whiteSpace=wrap;html=1;" vertex="1" parent="1">
          <mxGeometry x="414" y="280" width="120" height="60" as="geometry" />
        </mxCell>
        <mxCell id="qozd9NBj0RtvDI7-sQQz-29" value="" style="edgeStyle=orthogonalEdgeStyle;rounded=0;orthogonalLoop=1;jettySize=auto;html=1;" edge="1" parent="1" source="qozd9NBj0RtvDI7-sQQz-23" target="qozd9NBj0RtvDI7-sQQz-28">
          <mxGeometry relative="1" as="geometry" />
        </mxCell>
        <mxCell id="qozd9NBj0RtvDI7-sQQz-61" value="" style="edgeStyle=orthogonalEdgeStyle;rounded=0;orthogonalLoop=1;jettySize=auto;html=1;" edge="1" parent="1" source="qozd9NBj0RtvDI7-sQQz-23" target="qozd9NBj0RtvDI7-sQQz-28">
          <mxGeometry relative="1" as="geometry" />
        </mxCell>
        <mxCell id="qozd9NBj0RtvDI7-sQQz-23" value="validação de dados" style="rounded=0;whiteSpace=wrap;html=1;" vertex="1" parent="1">
          <mxGeometry x="414" y="360" width="120" height="60" as="geometry" />
        </mxCell>
        <mxCell id="qozd9NBj0RtvDI7-sQQz-28" value="verificação de credenciais" style="rounded=0;whiteSpace=wrap;html=1;" vertex="1" parent="1">
          <mxGeometry x="480" y="440" width="120" height="60" as="geometry" />
        </mxCell>
        <mxCell id="qozd9NBj0RtvDI7-sQQz-35" value="" style="edgeStyle=orthogonalEdgeStyle;rounded=0;orthogonalLoop=1;jettySize=auto;html=1;" edge="1" parent="1" source="qozd9NBj0RtvDI7-sQQz-31" target="qozd9NBj0RtvDI7-sQQz-28">
          <mxGeometry relative="1" as="geometry" />
        </mxCell>
        <mxCell id="qozd9NBj0RtvDI7-sQQz-36" value="" style="edgeStyle=orthogonalEdgeStyle;rounded=0;orthogonalLoop=1;jettySize=auto;html=1;" edge="1" parent="1" source="qozd9NBj0RtvDI7-sQQz-31" target="qozd9NBj0RtvDI7-sQQz-7">
          <mxGeometry relative="1" as="geometry" />
        </mxCell>
        <mxCell id="qozd9NBj0RtvDI7-sQQz-40" value="" style="edgeStyle=orthogonalEdgeStyle;rounded=0;orthogonalLoop=1;jettySize=auto;html=1;" edge="1" parent="1" source="qozd9NBj0RtvDI7-sQQz-31" target="qozd9NBj0RtvDI7-sQQz-39">
          <mxGeometry relative="1" as="geometry" />
        </mxCell>
        <mxCell id="qozd9NBj0RtvDI7-sQQz-31" value="Inicio" style="rounded=1;whiteSpace=wrap;html=1;" vertex="1" parent="1">
          <mxGeometry x="310" y="510" width="120" height="60" as="geometry" />
        </mxCell>
        <mxCell id="qozd9NBj0RtvDI7-sQQz-37" value="Explorar conteúdo" style="text;html=1;align=center;verticalAlign=middle;resizable=0;points=[];autosize=1;strokeColor=none;fillColor=none;" vertex="1" parent="1">
          <mxGeometry x="310" y="455" width="120" height="30" as="geometry" />
        </mxCell>
        <mxCell id="qozd9NBj0RtvDI7-sQQz-38" value="" style="endArrow=classic;startArrow=classic;html=1;rounded=0;" edge="1" parent="1">
          <mxGeometry width="50" height="50" relative="1" as="geometry">
            <mxPoint x="370" y="510" as="sourcePoint" />
            <mxPoint x="369.5" y="480" as="targetPoint" />
          </mxGeometry>
        </mxCell>
        <mxCell id="qozd9NBj0RtvDI7-sQQz-42" value="" style="edgeStyle=orthogonalEdgeStyle;rounded=0;orthogonalLoop=1;jettySize=auto;html=1;" edge="1" parent="1" source="qozd9NBj0RtvDI7-sQQz-39" target="qozd9NBj0RtvDI7-sQQz-41">
          <mxGeometry relative="1" as="geometry" />
        </mxCell>
        <mxCell id="qozd9NBj0RtvDI7-sQQz-39" value="tela inicial com feed personaiazado" style="rounded=1;whiteSpace=wrap;html=1;" vertex="1" parent="1">
          <mxGeometry x="310" y="585" width="120" height="60" as="geometry" />
        </mxCell>
        <mxCell id="qozd9NBj0RtvDI7-sQQz-44" value="" style="edgeStyle=orthogonalEdgeStyle;rounded=0;orthogonalLoop=1;jettySize=auto;html=1;" edge="1" parent="1" source="qozd9NBj0RtvDI7-sQQz-41" target="qozd9NBj0RtvDI7-sQQz-43">
          <mxGeometry relative="1" as="geometry" />
        </mxCell>
        <mxCell id="qozd9NBj0RtvDI7-sQQz-41" value="Campo de busca" style="rounded=1;whiteSpace=wrap;html=1;" vertex="1" parent="1">
          <mxGeometry x="310" y="660" width="120" height="60" as="geometry" />
        </mxCell>
        <mxCell id="qozd9NBj0RtvDI7-sQQz-46" value="" style="edgeStyle=orthogonalEdgeStyle;rounded=0;orthogonalLoop=1;jettySize=auto;html=1;" edge="1" parent="1" source="qozd9NBj0RtvDI7-sQQz-43" target="qozd9NBj0RtvDI7-sQQz-45">
          <mxGeometry relative="1" as="geometry" />
        </mxCell>
        <mxCell id="qozd9NBj0RtvDI7-sQQz-43" value="tela inicial com feed personaiazado" style="rounded=1;whiteSpace=wrap;html=1;" vertex="1" parent="1">
          <mxGeometry x="310" y="740" width="120" height="60" as="geometry" />
        </mxCell>
        <mxCell id="qozd9NBj0RtvDI7-sQQz-47" style="edgeStyle=orthogonalEdgeStyle;rounded=0;orthogonalLoop=1;jettySize=auto;html=1;" edge="1" parent="1" source="qozd9NBj0RtvDI7-sQQz-45">
          <mxGeometry relative="1" as="geometry">
            <mxPoint x="370" y="890" as="targetPoint" />
          </mxGeometry>
        </mxCell>
        <mxCell id="qozd9NBj0RtvDI7-sQQz-45" value="Termos de pesquisa" style="rounded=1;whiteSpace=wrap;html=1;" vertex="1" parent="1">
          <mxGeometry x="310" y="810" width="120" height="60" as="geometry" />
        </mxCell>
        <mxCell id="qozd9NBj0RtvDI7-sQQz-51" value="" style="edgeStyle=orthogonalEdgeStyle;rounded=0;orthogonalLoop=1;jettySize=auto;html=1;" edge="1" parent="1" source="qozd9NBj0RtvDI7-sQQz-48" target="qozd9NBj0RtvDI7-sQQz-50">
          <mxGeometry relative="1" as="geometry" />
        </mxCell>
        <mxCell id="qozd9NBj0RtvDI7-sQQz-48" value="Filtrar resultados" style="rounded=0;whiteSpace=wrap;html=1;" vertex="1" parent="1">
          <mxGeometry x="310" y="890" width="120" height="60" as="geometry" />
        </mxCell>
        <mxCell id="qozd9NBj0RtvDI7-sQQz-59" value="" style="edgeStyle=orthogonalEdgeStyle;rounded=0;orthogonalLoop=1;jettySize=auto;html=1;" edge="1" parent="1" source="qozd9NBj0RtvDI7-sQQz-50" target="qozd9NBj0RtvDI7-sQQz-53">
          <mxGeometry relative="1" as="geometry" />
        </mxCell>
        <mxCell id="qozd9NBj0RtvDI7-sQQz-60" value="" style="edgeStyle=orthogonalEdgeStyle;rounded=0;orthogonalLoop=1;jettySize=auto;html=1;" edge="1" parent="1" source="qozd9NBj0RtvDI7-sQQz-50" target="qozd9NBj0RtvDI7-sQQz-54">
          <mxGeometry relative="1" as="geometry" />
        </mxCell>
        <mxCell id="qozd9NBj0RtvDI7-sQQz-63" value="" style="edgeStyle=orthogonalEdgeStyle;rounded=0;orthogonalLoop=1;jettySize=auto;html=1;" edge="1" parent="1" source="qozd9NBj0RtvDI7-sQQz-50" target="qozd9NBj0RtvDI7-sQQz-62">
          <mxGeometry relative="1" as="geometry" />
        </mxCell>
        <mxCell id="qozd9NBj0RtvDI7-sQQz-50" value="Visualizar Pin" style="rounded=0;whiteSpace=wrap;html=1;" vertex="1" parent="1">
          <mxGeometry x="310" y="960" width="120" height="60" as="geometry" />
        </mxCell>
        <mxCell id="qozd9NBj0RtvDI7-sQQz-52" value="PINTEREST B.D" style="text;html=1;align=center;verticalAlign=middle;resizable=0;points=[];autosize=1;strokeColor=none;fillColor=none;" vertex="1" parent="1">
          <mxGeometry x="310" width="110" height="30" as="geometry" />
        </mxCell>
        <mxCell id="qozd9NBj0RtvDI7-sQQz-57" value="" style="edgeStyle=orthogonalEdgeStyle;rounded=0;orthogonalLoop=1;jettySize=auto;html=1;" edge="1" parent="1" source="qozd9NBj0RtvDI7-sQQz-53" target="qozd9NBj0RtvDI7-sQQz-55">
          <mxGeometry relative="1" as="geometry" />
        </mxCell>
        <mxCell id="qozd9NBj0RtvDI7-sQQz-53" value="(Salvar Pin)" style="rounded=0;whiteSpace=wrap;html=1;" vertex="1" parent="1">
          <mxGeometry x="450" y="960" width="120" height="60" as="geometry" />
        </mxCell>
        <mxCell id="qozd9NBj0RtvDI7-sQQz-58" value="" style="edgeStyle=orthogonalEdgeStyle;rounded=0;orthogonalLoop=1;jettySize=auto;html=1;" edge="1" parent="1" source="qozd9NBj0RtvDI7-sQQz-54" target="qozd9NBj0RtvDI7-sQQz-56">
          <mxGeometry relative="1" as="geometry" />
        </mxCell>
        <mxCell id="qozd9NBj0RtvDI7-sQQz-54" value="(Detalhes do Pin)" style="rounded=0;whiteSpace=wrap;html=1;" vertex="1" parent="1">
          <mxGeometry x="170" y="960" width="120" height="60" as="geometry" />
        </mxCell>
        <mxCell id="qozd9NBj0RtvDI7-sQQz-55" value="Compartilhar Pin" style="rounded=0;whiteSpace=wrap;html=1;" vertex="1" parent="1">
          <mxGeometry x="450" y="1040" width="120" height="60" as="geometry" />
        </mxCell>
        <mxCell id="qozd9NBj0RtvDI7-sQQz-56" value="(Comentar Pin)" style="rounded=0;whiteSpace=wrap;html=1;" vertex="1" parent="1">
          <mxGeometry x="170" y="1040" width="120" height="60" as="geometry" />
        </mxCell>
        <mxCell id="qozd9NBj0RtvDI7-sQQz-66" value="" style="edgeStyle=orthogonalEdgeStyle;rounded=0;orthogonalLoop=1;jettySize=auto;html=1;" edge="1" parent="1" source="qozd9NBj0RtvDI7-sQQz-62" target="qozd9NBj0RtvDI7-sQQz-65">
          <mxGeometry relative="1" as="geometry" />
        </mxCell>
        <mxCell id="qozd9NBj0RtvDI7-sQQz-62" value="(Interação de usuários)&lt;div&gt;Ínicio&lt;/div&gt;" style="rounded=0;whiteSpace=wrap;html=1;" vertex="1" parent="1">
          <mxGeometry x="310" y="1090" width="120" height="60" as="geometry" />
        </mxCell>
        <mxCell id="qozd9NBj0RtvDI7-sQQz-68" value="" style="edgeStyle=orthogonalEdgeStyle;rounded=0;orthogonalLoop=1;jettySize=auto;html=1;" edge="1" parent="1" source="qozd9NBj0RtvDI7-sQQz-65" target="qozd9NBj0RtvDI7-sQQz-67">
          <mxGeometry relative="1" as="geometry" />
        </mxCell>
        <mxCell id="qozd9NBj0RtvDI7-sQQz-65" value="Procurar e seguir usuários" style="rounded=0;whiteSpace=wrap;html=1;" vertex="1" parent="1">
          <mxGeometry x="310" y="1169" width="120" height="60" as="geometry" />
        </mxCell>
        <mxCell id="qozd9NBj0RtvDI7-sQQz-70" value="" style="edgeStyle=orthogonalEdgeStyle;rounded=0;orthogonalLoop=1;jettySize=auto;html=1;" edge="1" parent="1" source="qozd9NBj0RtvDI7-sQQz-67" target="qozd9NBj0RtvDI7-sQQz-69">
          <mxGeometry relative="1" as="geometry" />
        </mxCell>
        <mxCell id="qozd9NBj0RtvDI7-sQQz-67" value="Receber atualizações no feed" style="rounded=0;whiteSpace=wrap;html=1;" vertex="1" parent="1">
          <mxGeometry x="310" y="1250" width="120" height="60" as="geometry" />
        </mxCell>
        <mxCell id="qozd9NBj0RtvDI7-sQQz-72" value="" style="edgeStyle=orthogonalEdgeStyle;rounded=0;orthogonalLoop=1;jettySize=auto;html=1;" edge="1" parent="1" source="qozd9NBj0RtvDI7-sQQz-69" target="qozd9NBj0RtvDI7-sQQz-71">
          <mxGeometry relative="1" as="geometry" />
        </mxCell>
        <mxCell id="qozd9NBj0RtvDI7-sQQz-69" value="Comentar em pins" style="rounded=0;whiteSpace=wrap;html=1;" vertex="1" parent="1">
          <mxGeometry x="310" y="1330" width="120" height="60" as="geometry" />
        </mxCell>
        <mxCell id="qozd9NBj0RtvDI7-sQQz-74" value="" style="edgeStyle=orthogonalEdgeStyle;rounded=0;orthogonalLoop=1;jettySize=auto;html=1;" edge="1" parent="1" source="qozd9NBj0RtvDI7-sQQz-71">
          <mxGeometry relative="1" as="geometry">
            <mxPoint x="370" y="1490" as="targetPoint" />
          </mxGeometry>
        </mxCell>
        <mxCell id="qozd9NBj0RtvDI7-sQQz-71" value="curtir pins" style="rounded=0;whiteSpace=wrap;html=1;" vertex="1" parent="1">
          <mxGeometry x="310" y="1410" width="120" height="60" as="geometry" />
        </mxCell>
      </root>
    </mxGraphModel>
  </diagram>
</mxfile>
